<?xml version="1.0" encoding="UTF-8" standalone="no"?>
<svg
   inkscape:version="1.2 (dc2aedaf03, 2022-05-15)"
   height="656"
   width="656"
   sodipodi:docname="logo_usfq_red.svg"
   id="svg12"
   version="1.1"
   viewBox="0 0 656 656"
   xmlns:inkscape="http://www.inkscape.org/namespaces/inkscape"
   xmlns:sodipodi="http://sodipodi.sourceforge.net/DTD/sodipodi-0.dtd"
   xmlns="http://www.w3.org/2000/svg"
   xmlns:svg="http://www.w3.org/2000/svg"
   xmlns:rdf="http://www.w3.org/1999/02/22-rdf-syntax-ns#"
   xmlns:cc="http://creativecommons.org/ns#"
   xmlns:dc="http://purl.org/dc/elements/1.1/">
  <metadata
     id="metadata18">
    <rdf:RDF>
      <cc:Work
         rdf:about="">
        <dc:format>image/svg+xml</dc:format>
        <dc:type
           rdf:resource="http://purl.org/dc/dcmitype/StillImage" />
      </cc:Work>
    </rdf:RDF>
  </metadata>
  <defs
     id="defs16" />
  <sodipodi:namedview
     inkscape:current-layer="svg12"
     inkscape:window-maximized="1"
     inkscape:window-y="102"
     inkscape:window-x="-8"
     inkscape:cy="337.86294"
     inkscape:cx="338.50042"
     inkscape:zoom="0.78434171"
     fit-margin-bottom="0"
     fit-margin-right="0"
     fit-margin-left="0"
     fit-margin-top="0"
     showgrid="false"
     id="namedview14"
     inkscape:window-height="1017"
     inkscape:window-width="1920"
     inkscape:pageshadow="2"
     inkscape:pageopacity="0"
     guidetolerance="10"
     gridtolerance="10"
     objecttolerance="10"
     borderopacity="1"
     bordercolor="#666666"
     pagecolor="#ffffff"
     inkscape:showpageshadow="0"
     inkscape:pagecheckerboard="1"
     inkscape:deskcolor="#d1d1d1" />
  <g
     transform="translate(-0.372,215.4175)"
     id="g868">
    <path
       d="m 38.232,52.566 c 0,-5.186 -0.739,-8.661 -2.215,-10.426 -1.477,-1.764 -4.375,-2.647 -8.697,-2.647 h -3.889 v -6.266 h 48.401 v 6.266 H 57.031 v 104.799 c 0,7.346 1.962,12.947 5.888,16.8 3.925,3.853 9.633,5.78 17.125,5.78 7.563,0 13.216,-2.271 16.961,-6.808 3.745,-4.538 5.619,-11.487 5.619,-20.852 V 52.566 c 0,-5.257 -0.722,-8.751 -2.161,-10.48 -1.442,-1.728 -4.287,-2.593 -8.535,-2.593 h -4.106 v -6.266 h 35.761 v 6.266 h -14.801 v 102.636 c 0,11.454 -3.025,20.259 -9.075,26.417 -6.051,6.159 -14.658,9.237 -25.822,9.237 -11.741,0 -20.618,-3.204 -26.632,-9.614 -6.014,-6.412 -9.021,-15.846 -9.021,-28.308 z m 241.901,0 c 0,-5.186 -0.739,-8.661 -2.215,-10.426 -1.477,-1.764 -4.375,-2.647 -8.697,-2.647 h -3.889 v -6.266 h 73.144 v -9.292 h 6.697 v 49.59 h -6.697 V 64.45 c 0,-9.003 -2.198,-15.412 -6.592,-19.232 -4.394,-3.816 -11.775,-5.725 -22.147,-5.725 h -10.804 v 34.249 h 17.286 V 54.295 h 6.591 v 50.022 h -6.591 V 94.161 c 0,-4.537 -1.134,-8.049 -3.403,-10.534 -2.269,-2.485 -5.421,-3.727 -9.453,-3.727 h -4.43 v 75.52 c 0,5.114 0.738,8.572 2.215,10.371 1.475,1.801 4.338,2.702 8.589,2.702 h 6.698 v 6.156 h -51.102 v -6.156 h 14.801 V 52.566 Z m 191.033,116.143 c -5.398,3.023 -11.209,5.293 -17.436,6.805 -6.226,1.514 -13.08,2.27 -20.566,2.27 -22.237,0 -40.519,-6.97 -54.84,-20.904 -14.321,-13.938 -21.482,-31.603 -21.482,-52.995 0,-20.527 7.287,-37.939 21.862,-52.236 14.575,-14.297 32.442,-21.447 53.604,-21.447 21.808,0 40.198,7.169 55.168,21.501 14.972,14.333 22.457,31.727 22.457,52.182 0,12.534 -2.736,24.023 -8.207,34.465 -5.473,10.445 -13.284,19.087 -23.435,25.931 31.903,9.146 57.02,15.411 75.352,18.799 18.33,3.385 35.019,5.078 50.07,5.078 5.331,0 10.262,-0.2 14.8,-0.596 4.539,-0.396 8.821,-1.025 12.856,-1.89 l 1.944,3.563 c -9.219,3.603 -17.932,6.321 -26.141,8.157 -8.212,1.837 -15.846,2.756 -22.903,2.756 -14.764,0 -39.213,-6.05 -73.351,-18.15 -16.925,-5.98 -30.175,-10.408 -39.752,-13.289 m -1.943,-6.915 c 7.411,-4.825 13.061,-11.183 16.946,-19.07 3.886,-7.886 5.829,-16.87 5.829,-26.956 0,-9.722 -1.603,-19.103 -4.803,-28.143 -3.203,-9.038 -7.863,-17.341 -13.978,-24.903 -6.766,-8.282 -14.195,-14.494 -22.29,-18.638 -8.099,-4.141 -16.964,-6.212 -26.607,-6.212 -14.537,0 -26.319,5.169 -35.352,15.504 -9.031,10.336 -13.545,24.004 -13.545,41.001 0,16.351 3.923,31.08 11.765,44.188 7.841,13.11 18.385,22.474 31.627,28.091 v -1.079 c 0,-2.954 1.277,-5.24 3.832,-6.862 2.555,-1.621 6.205,-2.43 10.955,-2.43 3.526,0 7.898,0.396 13.115,1.188 5.216,0.792 12.717,2.233 22.506,4.321 m -44.687,6.481 a 49.46,49.46 0 0 0 6.691,1.621 c 2.16,0.36 4.426,0.54 6.801,0.54 a 62.28,62.28 0 0 0 11.494,-1.08 c 3.851,-0.721 7.755,-1.838 11.713,-3.35 -3.886,-1.081 -7.629,-1.907 -11.225,-2.485 -3.602,-0.574 -7.089,-0.862 -10.472,-0.862 -3.524,0 -6.477,0.449 -8.849,1.349 -2.376,0.902 -4.425,2.323 -6.153,4.267 M 247.268,60.068 a 2.25,2.25 0 0 0 -0.084,0.109 c -0.056,0.099 -0.086,0.232 -0.047,0.464 0.073,0.44 0.543,1.18 0.396,1.686 3.553,2.033 -10e-4,5.177 0.115,7.852 0.191,4.347 3.319,3.479 4.28,2.482 -1.829,0.659 -3.735,0.169 -3.478,-2.489 0.181,-1.875 1.79,-3.244 2.093,-4.812 0.399,-2.073 -0.416,-4.184 -2.007,-5.325 0,0 0.056,-0.13 -0.013,-0.235 -0.321,0.341 -0.962,0.074 -1.255,0.268 m -11.601,14.808 c 0.668,-0.145 6.731,-1.978 5.164,-3.21 -0.539,-0.421 -1.541,-0.125 -2.031,0.064 -1.694,0.65 -3.524,0.487 -5.232,0.412 -0.058,1.017 -0.063,2.045 -0.104,3.074 a 18.699,18.699 0 0 0 2.203,-0.34"
       fill="#ed1c24"
       id="path2" />
    <path
       d="m 230.444,93.997 c -5.756,-1.251 -10.827,-5.272 -13.204,-8.274 1.988,0.356 3.63,-0.14 7.647,-4.991 -5.493,1.55 -7,1.298 -12.32,0.83 -2.777,-0.245 -5.531,-0.819 -8.98,-2.369 -3.713,-1.669 -5.279,-6.123 -7.429,-9.576 -1.081,-1.735 -2.358,-3.616 -2.737,-5.672 -0.034,-0.193 -0.027,-0.518 -0.079,-0.684 0,0 0.716,2.217 5.523,1.878 2.919,-0.205 4.562,-3.514 7.289,-4.164 3.908,-0.93 8.224,2.053 10.585,3.695 4.208,2.923 6.256,8.752 11.374,10.218 1.247,0.357 2.591,0.567 3.896,0.542 0.19,0.618 0.207,1.129 0.193,1.798 -0.065,3.679 -2.697,3.993 -5.053,2.751 1.137,1.541 5.202,3.32 6.126,-2.591 0.113,-0.721 0.16,-1.447 0.189,-2.172 -0.066,0.006 -0.126,0.024 -0.192,0.029 l -0.503,-3.133 c 0.26,0.003 0.531,0.019 0.798,0.03 0.089,-1.553 0.321,-3.081 1.101,-4.545 1.247,0.664 1.212,0.744 2.499,1.25 1.173,0.459 2.4,0.752 3.644,0.864 1.624,0.143 3.579,1.14 4.606,-0.818 1.033,-1.968 0.69,-4.517 2.068,-6.379 0.039,-0.053 0.03,-0.126 0.048,-0.187 -0.097,-0.056 -0.18,-0.115 -0.288,-0.168 0,0 -0.296,-0.124 -0.49,-0.249 -0.142,-0.089 -0.012,-1.108 0.429,-1.732 0.024,-0.042 0.048,-0.084 0.084,-0.109 0.153,-0.18 0.334,-0.32 0.554,-0.36 0.462,-0.086 0.637,-0.007 0.701,0.092 0.04,-0.042 0.084,-0.076 0.111,-0.138 -1.013,-3.883 -4.588,-5.749 -8.236,-3.4 -4.77,-3.585 -13.614,-2.709 -14.452,-10.606 1.091,-0.809 3.517,-0.486 4.389,-0.668 -1.373,-4.053 -4.32,-7.958 -9.726,-6.544 1.049,-9.011 -11.846,-2.738 -14.429,-7.761 -0.956,0.306 -1.425,1.123 -1.988,1.843 l 0.05,0.171 -0.099,-0.106 0.049,-0.065 -0.067,-0.221 c -0.642,-6.096 4.82,-7.824 8.172,-3.859 -1.009,-3.566 -9.214,-3.495 -10.355,-0.119 -2.577,-4.189 2.067,-2.916 -1.479,-6.462 -4.532,-4.375 -11.387,-6.212 -17.446,-6.791 4.679,1.342 9.312,3.615 10.928,10.12 -2.702,-1.646 -4.511,-1.073 -4.511,-1.073 0,0 1.973,0.96 0.772,3.289 -0.264,0.509 -5.105,0.403 -4.711,0.821 -3.718,-0.599 -6.652,-5.387 -9.984,-6.619 -6.276,-2.679 -17.813,-3.634 -23.24,1.043 6.848,1.201 13.124,3.671 18.06,9.731 -2.536,0.651 -8.382,1.963 -8.35,5.54 1.752,-0.647 4.481,-1.3 5.859,0.159 -6.203,5.103 -12.006,11.254 -11.925,20.507 2.708,-2.547 3.841,-7.183 6.746,-9.944 2.132,-2.122 6.141,-2.859 8.874,-3.303 -6.56,4.101 -11.133,7.779 -12.176,13.195 -0.501,2.609 0.331,5.432 -1.834,7.595 -1.076,1.192 -2.608,-0.166 -2.822,0.57 -0.594,1.984 2.031,2.483 3.571,3.016 1.594,-3.154 4.013,-8.923 4.272,-15.355 2.209,4.443 0.72,13.599 -3.303,16.785 -0.26,1.365 -1.101,3.913 -0.938,5.223 1.018,8.236 14.84,20.947 5.59,26.117 3.982,1.927 7.586,-2.814 9.306,-5.643 3.757,3.084 5.764,6.225 10.053,7.342 l -0.002,0.079 c 1.432,1.25 3.558,9.175 17.773,10.217 -2.719,-1.35 -4.679,-3.36 -5.897,-6.096 l 0.208,-0.251 c 7.509,2.894 11.99,4.856 13.439,5.921 4.828,3.583 7.64,8.745 8.443,15.521 -10e-4,5.185 -2.188,9.723 -6.611,13.614 3.91,0.344 11.549,-6.413 11.549,-6.413 0,0 -1.176,1.9 -2.799,4.1 -5.126,5.283 -6.435,8.216 -16.358,6.616 3.43,2.188 5.165,2.052 6.438,2.415 -0.551,0.683 -6.068,4.808 -9.546,4.313 -6.598,-0.943 -10.127,-2.723 -12.776,-8.914 -0.626,-1.159 -0.552,-3.755 0.167,-7.78 1.209,-4.164 3.441,-6.93 6.681,-8.306 -6.028,0.372 -11.099,3.823 -15.298,10.329 -2.689,-1.892 -5.891,-3.389 -9.643,-4.483 1.645,-0.94 4.091,-3.286 9.227,-4.491 -2.463,-0.401 -7.264,-0.413 -10.8,0.183 -4.737,0.876 -7.589,1.391 -8.563,1.482 0.74,-0.069 2.528,-7.156 12.163,-9.115 -1.913,0.388 -4.757,-0.844 -6.838,-0.755 -1.802,0.074 -3.537,0.468 -5.239,1.058 -6.424,2.226 -12.23,6.569 -16.958,11.349 -16.287,16.466 -22.757,44.097 -18.451,66.356 0.268,1.381 2.112,7.401 1.087,2.09 -1.643,-10.377 1.275,-18.757 4.176,-27.142 0.971,23.394 5.462,24.545 14.134,31.915 -8.687,-9.325 -12.088,-15.386 -10.806,-37.7 2.604,9.313 8.034,20.063 15.509,24.096 -6.676,-7.565 -17.734,-26.414 -9.801,-35.845 -0.919,11.701 6.295,19.682 13.528,23.397 a 29.315,29.315 0 0 1 -3.849,-3.464 c -0.089,-0.064 -0.186,-0.119 -0.273,-0.185 0.036,0.005 0.068,0.009 0.104,0.016 -9.033,-9.784 -10.834,-25.064 3.316,-33.173 15.514,-8.887 19.804,18.577 16.119,23.73 -0.815,-0.07 -6.817,-0.561 -8.765,-2.698 0.013,3.773 8.269,9.567 9.535,8.846 0,0 -5.105,4.074 -9.297,4.25 -1.939,0.22 -5.585,-0.098 -10.908,-0.955 0.055,0.059 0.114,0.112 0.169,0.169 4.414,3.23 10.221,4.629 17.426,4.168 8.147,-0.384 14.684,-1.375 18.442,-11.096 l 0.119,0.137 c 0.053,0.063 0.1,0.116 0.144,0.166 l 0.219,0.254 0.065,0.073 -0.065,-0.073 a 46.155,46.155 0 0 1 -0.219,-0.254 c -0.044,-0.05 -0.091,-0.103 -0.144,-0.166 l -0.119,-0.137 c 0,0 -5.539,13.336 -9.193,28.906 15.747,-25.26 24.56,-17.195 34.72,-22.438 l 0.141,0.291 c -0.993,1.818 -3.283,3.98 -6.86,6.521 4.994,-0.875 10.109,-3.577 20.699,-12.331 1.144,6.064 6.238,9.647 9.13,13.249 -0.475,-9.414 4.922,-26.557 8.595,-32.916 l 0.451,0.868 c -0.017,0.187 -0.012,4.915 -0.039,14.2 4.313,-10.585 8.757,-15.754 9.329,-22.024 0.321,-3.495 1.185,-14.405 0.753,-17.601 -0.848,-13.062 -5.693,-25.297 -20.691,-34.287 m 14.864,-34.429 c 0.294,-0.187 1.331,-1.265 1.121,-1.68 0.531,1.046 0.655,2.248 -0.302,3.857 -0.856,0.216 -1.764,0.173 -1.745,-0.946 0.015,-0.949 0.324,-0.841 0.926,-1.231 m -5.195,0.721 c 1.555,0.976 -0.01,3.282 -1.444,2.819 -1.385,-0.443 -2.354,-1.943 -2.607,-3.406 0.236,1.376 3.391,0.174 4.051,0.587 m -18.298,-0.092 c 1.539,0.673 2.98,1.632 4.417,2.516 1.567,0.961 2.544,1.522 4.159,2.466 -0.816,1.219 -0.742,3.167 -0.62,4.787 0.071,1.011 0.021,0.41 0.328,1.541 -1.074,-0.179 -0.989,-0.221 -1.976,-0.804 -1.326,-0.786 -2.168,-1.41 -3.212,-2.575 -4.9,-5.462 -5.245,-5.068 -5.708,-8.056 -0.13,-0.832 1.913,-0.176 2.612,0.125 m -7.232,-19.694 c 0.102,-0.017 0.194,-0.066 0.301,-0.067 0.952,-0.009 1.734,0.673 2.009,1.601 1.238,0.927 2.309,1.864 2.986,2.44 -1.46,0.426 -2.79,0.438 -4.068,0.282 -0.27,0.139 -0.564,0.23 -0.885,0.233 -0.603,0.004 -1.142,-0.269 -1.531,-0.702 -1.998,-0.528 -3.949,-1.235 -6.132,-1.281 0.967,-4.871 4.248,-4.271 7.32,-2.506 M 166.05,57.729 c -0.422,5.215 0.461,10.693 0.356,14.68 -5.348,-12 0.627,-24.208 6.786,-24.489 -1.192,4.242 -6.832,5.975 -7.142,9.809 m 11.769,-7.569 c -6.247,6.916 -8.511,15.342 -6.65,23.367 0,-0.001 -8.711,-11.368 6.65,-23.367 m -1.967,17.965 c -0.115,-0.519 -1,3.626 -2.54,8.475 -1.186,-7.297 3.604,-21.628 8.637,-22.96 -4.24,6.036 -7.28,10.47 0.575,27.957 -3.369,-5.943 -5.877,-9.757 -6.672,-13.472 m 8.932,-7.667 c -0.838,10.926 3.877,20.794 12.679,27.608 0,-0.001 -18.988,-5.742 -12.679,-27.608 m 18.193,27.306 c -0.515,-0.165 2.92,3.261 6.75,7.859 -7.08,-2.807 -18.308,-16.674 -17.625,-23.348 3.892,8.448 6.78,14.571 25.635,15.407 -6.672,0.538 -11.083,1.286 -14.76,0.082"
       fill="#ed1c24"
       id="path4" />
    <path
       d="m 145.326,210.09 a 79.596,79.596 0 0 0 -2.366,-2.089 c 0.34,0.365 0.673,0.727 1.03,1.104 z"
       fill="#231f20"
       id="path6" />
    <path
       d="m 247.822,59.708 c -0.219,0.041 -0.401,0.18 -0.554,0.36 0.293,-0.194 0.934,0.073 1.256,-0.268 -0.064,-0.099 -0.24,-0.176 -0.702,-0.092 m -0.685,0.933 c -0.039,-0.232 -0.008,-0.365 0.047,-0.463 -0.441,0.623 -0.57,1.643 -0.428,1.732 0.193,0.124 0.489,0.248 0.489,0.248 0.109,0.053 0.191,0.112 0.288,0.169 0.147,-0.505 -0.323,-1.246 -0.396,-1.686 m -13.865,14.604 c 0.065,-0.005 0.126,-0.023 0.191,-0.029 0.041,-1.029 0.046,-2.056 0.104,-3.074 -0.267,-0.011 -0.539,-0.027 -0.799,-0.03 z M 214.884,40.437 c -0.107,0.001 -0.199,0.05 -0.301,0.067 0.8,0.459 1.583,0.991 2.309,1.534 -0.274,-0.928 -1.056,-1.611 -2.008,-1.601 m 0.042,4.556 c 0.321,-0.003 0.616,-0.094 0.886,-0.234 -0.822,-0.1 -1.626,-0.259 -2.417,-0.468 0.389,0.432 0.928,0.706 1.531,0.702"
       fill="#ed1c24"
       id="path8" />
    <path
       d="m 212.792,42.733 a 2.35,2.35 0 0 0 0.604,1.558 c 0.79,0.209 1.595,0.367 2.416,0.468 0.719,-0.37 1.219,-1.151 1.211,-2.063 -0.002,-0.234 -0.067,-0.447 -0.13,-0.658 a 22.943,22.943 0 0 0 -2.309,-1.534 c -1.018,0.172 -1.804,1.084 -1.792,2.229"
       fill="#ed1c24"
       id="path10" />
  </g>
</svg>
